<svg xmlns="http://www.w3.org/2000/svg" xmlns:xlink="http://www.w3.org/1999/xlink" width="500" zoomAndPan="magnify" viewBox="0 0 375 374.999991" height="500" preserveAspectRatio="xMidYMid meet" version="1.0"><rect x="-37.5" width="450" fill="#ffffff" y="-37.499999" height="449.999989" fill-opacity="1"/><rect x="-37.5" width="450" fill="#000000" y="-37.499999" height="449.999989" fill-opacity="1"/><path fill="#0287d0" d="M 187.195312 277.183594 L 38.9375 190.917969 L 38.9375 171.992188 L 38.933594 171.996094 L 38.933594 87.214844 L 187.195312 0.949219 L 187.195312 85.726562 L 95.527344 139.0625 L 187.195312 192.402344 Z M 187.195312 277.183594 " fill-opacity="1" fill-rule="evenodd"/><path fill="#1297e0" d="M 335.453125 0.945312 L 188.316406 86.5625 L 261.644531 128.871094 L 335.453125 85.925781 Z M 335.453125 0.945312 " fill-opacity="1" fill-rule="evenodd"/><path fill="#0287d0" d="M 187.195312 103.75 L 335.453125 190.011719 L 335.453125 208.9375 L 335.453125 208.933594 L 335.453125 293.714844 L 187.195312 379.980469 L 187.195312 295.203125 L 278.859375 241.863281 L 187.195312 188.527344 Z M 187.195312 103.75 " fill-opacity="1" fill-rule="evenodd"/><path fill="#1297e0" d="M 38.933594 379.980469 L 186.074219 294.367188 L 112.746094 252.058594 L 38.933594 295.007812 Z M 38.933594 379.980469 " fill-opacity="1" fill-rule="evenodd"/></svg>